<svg width="67" height="54" viewBox="0 0 67 54" fill="none" xmlns="http://www.w3.org/2000/svg">
<path d="M0.5 15.372L32.462 31.995C32.7826 32.1617 33.1386 32.2487 33.5 32.2487C33.8614 32.2487 34.2174 32.1617 34.538 31.995L66.5 15.375V44.25C66.5002 46.7404 65.5473 49.1365 63.837 50.9467C62.1266 52.7569 59.7884 53.844 57.302 53.985L56.75 54H10.25C7.75959 54.0002 5.36351 53.0473 3.55331 51.337C1.7431 49.6266 0.655996 47.2884 0.515 44.802L0.5 44.25V15.372ZM10.25 2.09256e-08H56.75C59.2404 -0.00016304 61.6365 0.952662 63.4467 2.66301C65.2569 4.37337 66.344 6.71158 66.485 9.198L66.5 9.75V10.302L33.5 27.462L0.5 10.302V9.75C0.499837 7.25959 1.45266 4.86352 3.16302 3.05331C4.87337 1.2431 7.21158 0.155996 9.698 0.0150004L10.25 2.09256e-08H56.75H10.25Z" fill="#CBD8D7"/>
</svg>
