<svg width="64" height="64" viewBox="0 0 64 64" fill="none" xmlns="http://www.w3.org/2000/svg">
<path d="M42.5 32.3125C42.5 29.4141 41.4746 26.9395 39.4238 24.8887C37.373 22.8379 34.8984 21.8125 32 21.8125C29.1016 21.8125 26.627 22.8379 24.5762 24.8887C22.5254 26.9395 21.5 29.4141 21.5 32.3125C21.5 35.2109 22.5254 37.6855 24.5762 39.7363C26.627 41.7871 29.1016 42.8125 32 42.8125C34.8984 42.8125 37.373 41.7871 39.4238 39.7363C41.4746 37.6855 42.5 35.2109 42.5 32.3125ZM48.1602 32.3125C48.1602 36.7969 46.5879 40.6113 43.4434 43.7559C40.2988 46.9004 36.4844 48.4727 32 48.4727C27.5156 48.4727 23.7012 46.9004 20.5566 43.7559C17.4121 40.6113 15.8398 36.7969 15.8398 32.3125C15.8398 27.8281 17.4121 24.0137 20.5566 20.8691C23.7012 17.7246 27.5156 16.1523 32 16.1523C36.4844 16.1523 40.2988 17.7246 43.4434 20.8691C46.5879 24.0137 48.1602 27.8281 48.1602 32.3125ZM52.5898 15.4961C52.5898 16.5352 52.2207 17.4238 51.4824 18.1621C50.7441 18.9004 49.8555 19.2695 48.8164 19.2695C47.7773 19.2695 46.8887 18.9004 46.1504 18.1621C45.4121 17.4238 45.043 16.5352 45.043 15.4961C45.043 14.457 45.4121 13.5684 46.1504 12.8301C46.8887 12.0918 47.7773 11.7227 48.8164 11.7227C49.8555 11.7227 50.7441 12.0918 51.4824 12.8301C52.2207 13.5684 52.5898 14.457 52.5898 15.4961ZM32 6.47266C31.8086 6.47266 30.7627 6.46582 28.8623 6.45215C26.9619 6.43848 25.5195 6.43848 24.5352 6.45215C23.5508 6.46582 22.2314 6.50684 20.5771 6.5752C18.9229 6.64355 17.5146 6.78027 16.3525 6.98535C15.1904 7.19043 14.2129 7.44336 13.4199 7.74414C12.0527 8.29102 10.8496 9.08398 9.81055 10.123C8.77148 11.1621 7.97852 12.3652 7.43164 13.7324C7.13086 14.5254 6.87793 15.5029 6.67285 16.665C6.46777 17.8271 6.33105 19.2354 6.2627 20.8896C6.19434 22.5439 6.15332 23.8633 6.13965 24.8477C6.12598 25.832 6.12598 27.2744 6.13965 29.1748C6.15332 31.0752 6.16016 32.1211 6.16016 32.3125C6.16016 32.5039 6.15332 33.5498 6.13965 35.4502C6.12598 37.3506 6.12598 38.793 6.13965 39.7773C6.15332 40.7617 6.19434 42.0811 6.2627 43.7354C6.33105 45.3896 6.46777 46.7979 6.67285 47.96C6.87793 49.1221 7.13086 50.0996 7.43164 50.8926C7.97852 52.2598 8.77148 53.4629 9.81055 54.502C10.8496 55.541 12.0527 56.334 13.4199 56.8809C14.2129 57.1816 15.1904 57.4346 16.3525 57.6396C17.5146 57.8447 18.9229 57.9814 20.5771 58.0498C22.2314 58.1182 23.5508 58.1592 24.5352 58.1729C25.5195 58.1865 26.9619 58.1865 28.8623 58.1729C30.7627 58.1592 31.8086 58.1523 32 58.1523C32.1914 58.1523 33.2373 58.1592 35.1377 58.1729C37.0381 58.1865 38.4805 58.1865 39.4648 58.1729C40.4492 58.1592 41.7686 58.1182 43.4229 58.0498C45.0771 57.9814 46.4854 57.8447 47.6475 57.6396C48.8096 57.4346 49.7871 57.1816 50.5801 56.8809C51.9473 56.334 53.1504 55.541 54.1895 54.502C55.2285 53.4629 56.0215 52.2598 56.5684 50.8926C56.8691 50.0996 57.1221 49.1221 57.3271 47.96C57.5322 46.7979 57.6689 45.3896 57.7373 43.7354C57.8057 42.0811 57.8467 40.7617 57.8604 39.7773C57.874 38.793 57.874 37.3506 57.8604 35.4502C57.8467 33.5498 57.8398 32.5039 57.8398 32.3125C57.8398 32.1211 57.8467 31.0752 57.8604 29.1748C57.874 27.2744 57.874 25.832 57.8604 24.8477C57.8467 23.8633 57.8057 22.5439 57.7373 20.8896C57.6689 19.2354 57.5322 17.8271 57.3271 16.665C57.1221 15.5029 56.8691 14.5254 56.5684 13.7324C56.0215 12.3652 55.2285 11.1621 54.1895 10.123C53.1504 9.08398 51.9473 8.29102 50.5801 7.74414C49.7871 7.44336 48.8096 7.19043 47.6475 6.98535C46.4854 6.78027 45.0771 6.64355 43.4229 6.5752C41.7686 6.50684 40.4492 6.46582 39.4648 6.45215C38.4805 6.43848 37.0381 6.43848 35.1377 6.45215C33.2373 6.46582 32.1914 6.47266 32 6.47266ZM63.5 32.3125C63.5 38.5742 63.4316 42.9082 63.2949 45.3145C63.0215 51.002 61.3262 55.4043 58.209 58.5215C55.0918 61.6387 50.6895 63.334 45.002 63.6074C42.5957 63.7441 38.2617 63.8125 32 63.8125C25.7383 63.8125 21.4043 63.7441 18.998 63.6074C13.3105 63.334 8.9082 61.6387 5.79102 58.5215C2.67383 55.4043 0.978516 51.002 0.705078 45.3145C0.568359 42.9082 0.5 38.5742 0.5 32.3125C0.5 26.0508 0.568359 21.7168 0.705078 19.3105C0.978516 13.623 2.67383 9.2207 5.79102 6.10352C8.9082 2.98633 13.3105 1.29102 18.998 1.01758C21.4043 0.880859 25.7383 0.8125 32 0.8125C38.2617 0.8125 42.5957 0.880859 45.002 1.01758C50.6895 1.29102 55.0918 2.98633 58.209 6.10352C61.3262 9.2207 63.0215 13.623 63.2949 19.3105C63.4316 21.7168 63.5 26.0508 63.5 32.3125Z" fill="#CBD8D7"/>
</svg>
