<svg width="73" height="62" viewBox="0 0 73 62" fill="none" xmlns="http://www.w3.org/2000/svg">
<path d="M72.9488 7.98203C70.8969 11.0637 68.4163 13.6894 65.5069 15.8591C65.5375 16.2993 65.5528 16.9597 65.5528 17.8401C65.5528 21.928 64.971 26.0081 63.8072 30.0802C62.6435 34.1524 60.8749 38.0595 58.5014 41.8015C56.128 45.5435 53.3028 48.8531 50.026 51.7303C46.7491 54.6076 42.7985 56.9031 38.1741 58.6168C33.5497 60.3306 28.6038 61.1875 23.3363 61.1875C15.0369 61.1875 7.4419 58.9077 0.55127 54.3481C1.62314 54.4739 2.81752 54.5368 4.13439 54.5368C11.025 54.5368 17.1653 52.3671 22.5553 48.0276C19.3397 47.9647 16.461 46.9506 13.9191 44.9853C11.3772 43.02 9.63158 40.5122 8.68221 37.462C9.69283 37.6192 10.6269 37.6978 11.4844 37.6978C12.8013 37.6978 14.1028 37.5249 15.3891 37.179C11.9591 36.4558 9.11861 34.7027 6.86768 31.9198C4.61674 29.1369 3.49127 25.9059 3.49127 22.2268V22.0381C5.57377 23.233 7.8094 23.8776 10.1981 23.972C8.1769 22.5884 6.56908 20.7803 5.37471 18.5477C4.18033 16.315 3.58314 13.8938 3.58314 11.2838C3.58314 8.5166 4.25689 5.95381 5.60439 3.59541C9.31002 8.28076 13.8196 12.0306 19.133 14.845C24.4464 17.6593 30.135 19.2237 36.1988 19.5382C35.9538 18.3433 35.8313 17.1798 35.8313 16.0478C35.8313 11.8341 37.2783 8.24146 40.1724 5.26987C43.0664 2.29829 46.5653 0.8125 50.6691 0.8125C54.9566 0.8125 58.5703 2.41621 61.5103 5.62363C64.8485 4.96328 67.9875 3.73691 70.9275 1.94453C69.7944 5.56074 67.62 8.35938 64.4044 10.3404C67.2525 10.026 70.1007 9.23984 72.9488 7.98203Z" fill="#CBD8D7"/>
</svg>
