<svg width="93" height="66" viewBox="0 0 93 66" fill="none" xmlns="http://www.w3.org/2000/svg">
<path d="M36.9525 45.1445L61.7669 32.3271L36.9525 19.356V45.1445ZM46.4373 0.950195C52.1795 0.950195 57.7252 1.0271 63.0743 1.18091C68.4234 1.33472 72.3455 1.49707 74.8406 1.66797L78.5833 1.87305C78.6175 1.87305 78.908 1.89868 79.4549 1.94995C80.0018 2.00122 80.3948 2.05249 80.6341 2.10376C80.8734 2.15503 81.275 2.23193 81.8389 2.33447C82.4029 2.43701 82.89 2.57373 83.3001 2.74463C83.7103 2.91553 84.1888 3.1377 84.7357 3.41113C85.2825 3.68457 85.8123 4.01782 86.325 4.41089C86.8377 4.80396 87.3333 5.25684 87.8118 5.76953C88.0169 5.97461 88.2818 6.29077 88.6065 6.71802C88.9312 7.14526 89.4268 8.14502 90.0933 9.71729C90.7598 11.2896 91.2127 13.0156 91.452 14.8955C91.7254 17.083 91.939 19.4158 92.0928 21.8938C92.2466 24.3718 92.3406 26.3115 92.3748 27.7129V36.7363C92.409 41.6924 92.1014 46.6484 91.452 51.6045C91.2127 53.4844 90.7855 55.1848 90.1702 56.7058C89.555 58.2268 89.0081 59.2778 88.5296 59.8589L87.8118 60.7305C87.3333 61.2432 86.8377 61.696 86.325 62.0891C85.8123 62.4822 85.2825 62.8069 84.7357 63.0632C84.1888 63.3196 83.7103 63.5332 83.3001 63.7041C82.89 63.875 82.4029 64.0117 81.8389 64.1143C81.275 64.2168 80.8648 64.2937 80.6085 64.345C80.3521 64.3962 79.9591 64.4475 79.4293 64.4988C78.8995 64.55 78.6175 64.5757 78.5833 64.5757C70.0042 65.2251 59.2889 65.5498 46.4373 65.5498C39.3622 65.4814 33.2184 65.3704 28.006 65.2166C22.7936 65.0627 19.3671 64.9346 17.7264 64.832L15.2142 64.627L13.3685 64.4219C12.1381 64.251 11.2067 64.0801 10.5743 63.9092C9.94201 63.7383 9.07043 63.3794 7.95959 62.8325C6.84875 62.2856 5.88317 61.585 5.06286 60.7305C4.85779 60.5254 4.59289 60.2092 4.26819 59.782C3.94348 59.3547 3.44787 58.355 2.78137 56.7827C2.11487 55.2104 1.66199 53.4844 1.42273 51.6045C1.14929 49.417 0.935669 47.0842 0.78186 44.6062C0.628052 42.1282 0.534058 40.1885 0.499878 38.7871V29.7637C0.465698 24.8076 0.773315 19.8516 1.42273 14.8955C1.66199 13.0156 2.08923 11.3152 2.70447 9.79419C3.3197 8.27319 3.86657 7.22217 4.34509 6.64111L5.06286 5.76953C5.54138 5.25684 6.03698 4.80396 6.54968 4.41089C7.06237 4.01782 7.59216 3.68457 8.13903 3.41113C8.68591 3.1377 9.16442 2.91553 9.57458 2.74463C9.98473 2.57373 10.4718 2.43701 11.0358 2.33447C11.5997 2.23193 12.0013 2.15503 12.2406 2.10376C12.4798 2.05249 12.8729 2.00122 13.4198 1.94995C13.9667 1.89868 14.2572 1.87305 14.2914 1.87305C22.8705 1.25781 33.5858 0.950195 46.4373 0.950195Z" fill="#CBD8D7"/>
</svg>
